<svg width="104" height="117" viewBox="0 0 104 117" fill="none" xmlns="http://www.w3.org/2000/svg">
<path d="M85.023 58.5522L95.7099 47.9752C106.763 37.0326 106.763 19.1692 95.7099 8.25268C84.6563 -2.66384 66.6354 -2.68996 55.5819 8.25268L51.6791 12.1179C46.5191 4.77924 38.0063 0 28.341 0C12.7037 0 0 12.5879 0 28.0748V88.9252C0 104.438 12.7037 117 28.341 117C38.0587 117 46.4929 112.221 51.6529 104.882L55.5557 108.721C66.6092 119.664 84.6301 119.664 95.6837 108.721C106.737 97.7786 106.737 79.9152 95.6837 68.9987L84.9969 58.5522H85.023Z" fill="white"/>
</svg>
